# xmcd
#
# Track frame offsets:
#	150
#	15175
#	27125
#	40106
#	53263
#	66688
#	77006
#	89579
#	102004
#	113977
#	125404
#	139884
#	152721
#	179601
#	191996
#
# Disc length: 2738
#
# Revision: 1
# Processed by: cddbd v1.5.1PL0 Copyright (c) Steve Scherf et al.
# Submitted via: CDex 1.51
# Normalized: r0:DSETVAR1,TDELIM( - )
#
DISCID=c50ab00f
DTITLE=Various Artist - Hot Summer_Cool Jazz_Sunday Tribune
DYEAR=2004
DGENRE=Jazz
TTITLE0=Nat King Cole - Mona Lisa
TTITLE1=Ella Fitzgerald - Paper Moon
TTITLE2=Fats Waller - This Joint Is Jumpin
TTITLE3=Billie Holliday - Them There Eyes
TTITLE4=Sidney Bechet - Georgia on my Mind
TTITLE5=Benny Goodman - Alexander's Ragtime Band
TTITLE6=Peggy Lee - That Old Feeling
TTITLE7=Sarah Vaughn - Mean to Me
TTITLE8=Irving Mills - St James Infirmary
TTITLE9=Hoagy Carmichael - Stardust
TTITLE10=Duke Ellington - It Dont Mean a Thing
TTITLE11=Charlie Parker - Summertime
TTITLE12=Louis Armstrong - On the Sunny Side of the Street
TTITLE13=Stan Kenton - Take the A Train
TTITLE14=Stephan Grapelli - Aint Misbehavin
EXTD=YEAR: 2004
EXTT0=
EXTT1=
EXTT2=
EXTT3=
EXTT4=
EXTT5=
EXTT6=
EXTT7=
EXTT8=
EXTT9=
EXTT10=
EXTT11=
EXTT12=
EXTT13=
EXTT14=
PLAYORDER=
